<?xml version="1.0" encoding="UTF-8"?>
<svg width="700pt" height="700pt" version="1.1" viewBox="0 0 700 700" xmlns="http://www.w3.org/2000/svg">
 <path d="m350 297.5c57.906 0 105-47.094 105-105v-52.5c0-57.906-47.094-105-105-105s-105 47.094-105 105v52.5c0 57.906 47.094 105 105 105zm-70-157.5c0-38.605 31.395-70 70-70s70 31.395 70 70v52.5c0 38.605-31.395 70-70 70s-70-31.395-70-70zm228.45 147.66c-26.215 53.953-80.379 90.125-140.95 96.109v106.23h70c9.6758 0 17.5 7.8242 17.5 17.5s-7.8242 17.5-17.5 17.5h-175c-9.6602 0-17.5-7.8242-17.5-17.5s7.8398-17.5 17.5-17.5h70v-106.28c-58.031-6.1602-111.2-42.121-138.57-95.672-4.3906-8.5938-0.99609-19.145 7.6133-23.555s19.145-0.98047 23.539 7.6289c24.184 47.301 73.219 77.875 124.91 77.875 54.215 0 104.04-30.469 126.96-77.664 4.2188-8.6797 14.629-12.32 23.398-8.0859 8.6797 4.2344 12.305 14.699 8.0859 23.414z"/>
</svg>
